<svg width="42" height="45" viewBox="0 0 42 45" fill="none" xmlns="http://www.w3.org/2000/svg">
<path d="M27.1912 1.22146C24.7836 0.865033 22.7989 0.800225 20.7492 0.832627C18.3742 0.832627 15.9991 0.897428 13.6241 0.92983C12.0624 0.92983 11.4117 1.80469 11.4117 3.36C11.3791 5.10972 11.4117 6.85944 11.3791 8.60916C11.3466 10.7477 10.2729 11.8494 8.12563 11.8818C6.20607 11.9142 4.31904 11.8818 2.39947 11.8818C0.707653 11.9142 0.0569363 12.5622 0.0244013 14.2796C-0.00813376 16.3209 -0.00813376 18.3622 0.0244013 20.436C0.0569363 22.1209 0.707637 22.7365 2.46453 22.7365C4.57931 22.7689 6.69409 22.7689 8.77633 22.7365C10.4031 22.7041 11.0538 22.0885 11.0538 20.4684C11.0863 18.5243 11.0212 16.5801 11.0863 14.636C11.1188 12.8215 12.0949 11.8494 13.9169 11.8494C14.3724 11.8494 14.8279 11.8494 15.2833 11.8494C15.4135 11.8494 15.5111 11.8494 15.6412 11.8494C17.1378 11.8494 18.3091 11.817 19.4804 11.817C21.0746 11.817 22.6688 11.817 24.2955 11.8818C24.3606 11.8818 24.4257 11.8818 24.4908 11.8818C27.6792 11.9466 30.0868 14.4416 30.0217 17.4226C29.9566 20.4684 27.549 22.7365 24.3281 22.7689C23.7099 22.7689 23.1243 22.7689 22.5061 22.7689C20.6516 22.7041 18.7971 22.7365 16.9426 22.7689C15.9991 22.7689 15.0231 22.7689 14.0795 22.7689C14.0145 22.7689 13.9494 22.8013 13.8843 22.8337C13.7867 22.8337 13.7217 22.8337 13.6241 22.8337C12.0624 22.8337 11.4117 23.7086 11.4117 25.2639C11.3791 27.0136 11.4117 28.7633 11.3791 30.5131C11.3466 32.6516 10.2729 33.7533 8.12563 33.7857C6.20607 33.8181 4.31904 33.7857 2.39947 33.7857C0.707653 33.8181 0.0569363 34.4661 0.0244013 36.1835C-0.00813376 38.2248 -0.00813376 40.2661 0.0244013 42.3399C0.0569363 44.0248 0.707637 44.6405 2.46453 44.6405C4.57931 44.6729 6.69409 44.6729 8.77633 44.6405C10.4031 44.6081 11.0538 43.9924 11.0538 42.3723C11.0863 40.4282 11.0212 38.484 11.0863 36.5399C11.1188 34.7578 12.0624 33.8181 13.7867 33.7533C17.1053 33.8181 20.3913 33.8181 23.7099 33.7533C23.9051 33.7533 24.1003 33.7533 24.263 33.7533V33.7209C24.3931 33.7209 24.4908 33.7209 24.6209 33.7209C33.1451 33.5589 40.3028 27.0784 40.986 19.0427C41.7343 10.3589 35.8129 2.45274 27.1912 1.22146Z" fill="url(#paint0_linear_2001_333)"/>
<defs>
<linearGradient id="paint0_linear_2001_333" x1="-2.23513" y1="41.1862" x2="34.635" y2="4.1649" gradientUnits="userSpaceOnUse">
<stop stop-color="#46B17A"/>
<stop offset="0.5056" stop-color="#00AF9F"/>
<stop offset="1" stop-color="#45BEDF"/>
</linearGradient>
</defs>
</svg>
